<svg xmlns="http://www.w3.org/2000/svg" viewBox="0 0 700 320" width="560" height="256" font-family="sans-serif" font-size="16">
  <defs>
    <marker id="arrow" markerWidth="8" markerHeight="8" refX="6" refY="3" orient="auto">
      <path d="M0,0 L0,6 L8,3 z" fill="#555"/>
    </marker>
  </defs>

  <!-- Crossplane Provider -->
  <rect x="50" y="20" width="220" height="40" rx="6" fill="#1a73e8"/>
  <text x="160" y="45" text-anchor="middle" fill="white" font-weight="bold">Crossplane Provider</text>

  <!-- Terraform Provider -->
  <rect x="430" y="20" width="220" height="40" rx="6" fill="#7b1fa2"/>
  <text x="540" y="45" text-anchor="middle" fill="white" font-weight="bold">Terraform Provider</text>

  <!-- Arrows down to middle boxes -->
  <line x1="160" y1="60" x2="160" y2="110" stroke="#555" stroke-width="1.5" marker-end="url(#arrow)"/>
  <line x1="540" y1="60" x2="540" y2="110" stroke="#555" stroke-width="1.5" marker-end="url(#arrow)"/>

  <!-- OpenAPI clients -->
  <rect x="25" y="110" width="270" height="50" rx="6" fill="#e8f5e9" stroke="#43a047"/>
  <text x="160" y="133" text-anchor="middle" fill="#2e7d32" font-weight="bold">OpenAPI clients</text>
  <text x="160" y="151" text-anchor="middle" fill="#2e7d32" font-size="13">(BTP REST APIs)</text>

  <!-- cli.btp.cloud.sap -->
  <rect x="405" y="110" width="270" height="50" rx="6" fill="#fce4ec" stroke="#e53935"/>
  <text x="540" y="133" text-anchor="middle" fill="#b71c1c" font-weight="bold">cli.btp.cloud.sap</text>
  <text x="540" y="151" text-anchor="middle" fill="#b71c1c" font-size="13">(Terraform only)</text>

  <!-- independent label -->
  <text x="350" y="140" text-anchor="middle" fill="#999" font-size="13" font-style="italic">independent</text>

  <!-- BTP backends (shared) -->
  <rect x="200" y="240" width="300" height="40" rx="6" fill="#eceff1" stroke="#90a4ae"/>
  <text x="350" y="265" text-anchor="middle" fill="#37474f">BTP backends</text>

  <!-- Arrows converging into BTP backends -->
  <line x1="160" y1="160" x2="280" y2="240" stroke="#555" stroke-width="1.5" marker-end="url(#arrow)"/>
  <line x1="540" y1="160" x2="420" y2="240" stroke="#555" stroke-width="1.5" marker-end="url(#arrow)"/>

</svg>
