<svg xmlns="http://www.w3.org/2000/svg" viewBox="0 0 700 300" font-family="sans-serif" font-size="13">
  <defs>
    <marker id="arrow" markerWidth="8" markerHeight="8" refX="6" refY="3" orient="auto">
      <path d="M0,0 L0,6 L8,3 z" fill="#555"/>
    </marker>
  </defs>

  <!-- Crossplane Provider -->
  <rect x="50" y="20" width="200" height="40" rx="6" fill="#1a73e8"/>
  <text x="150" y="45" text-anchor="middle" fill="white" font-weight="bold">Crossplane Provider</text>

  <!-- Terraform Provider -->
  <rect x="450" y="20" width="200" height="40" rx="6" fill="#7b1fa2"/>
  <text x="550" y="45" text-anchor="middle" fill="white" font-weight="bold">Terraform Provider</text>

  <!-- Arrows down -->
  <line x1="150" y1="60" x2="150" y2="95" stroke="#555" stroke-width="1.5" marker-end="url(#arrow)"/>
  <line x1="550" y1="60" x2="550" y2="95" stroke="#555" stroke-width="1.5" marker-end="url(#arrow)"/>

  <!-- OpenAPI clients -->
  <rect x="25" y="95" width="250" height="40" rx="6" fill="#e8f5e9" stroke="#43a047"/>
  <text x="150" y="113" text-anchor="middle" fill="#2e7d32">OpenAPI clients</text>
  <text x="150" y="128" text-anchor="middle" fill="#2e7d32" font-size="11">(generated from BTP REST specs)</text>

  <!-- cli.btp.cloud.sap -->
  <rect x="425" y="95" width="250" height="40" rx="6" fill="#fce4ec" stroke="#e53935"/>
  <text x="550" y="118" text-anchor="middle" fill="#b71c1c">cli.btp.cloud.sap</text>

  <!-- Arrows down -->
  <line x1="150" y1="135" x2="150" y2="195" stroke="#555" stroke-width="1.5" marker-end="url(#arrow)"/>
  <line x1="550" y1="135" x2="550" y2="195" stroke="#555" stroke-width="1.5" marker-end="url(#arrow)"/>

  <!-- BTP REST APIs -->
  <rect x="25" y="195" width="250" height="40" rx="6" fill="#e3f2fd" stroke="#1e88e5"/>
  <text x="150" y="218" text-anchor="middle" fill="#0d47a1">BTP REST APIs</text>

  <!-- BTP backends (shared) -->
  <rect x="425" y="195" width="250" height="40" rx="6" fill="#eceff1" stroke="#90a4ae"/>
  <text x="550" y="218" text-anchor="middle" fill="#37474f">BTP backends</text>

  <!-- Arrows to BTP backends -->
  <line x1="150" y1="235" x2="420" y2="255" stroke="#555" stroke-width="1.5" stroke-dasharray="4,3" marker-end="url(#arrow)"/>

  <!-- Label independent -->
  <text x="350" y="175" text-anchor="middle" fill="#888" font-size="11" font-style="italic">independent tools</text>
  <line x1="280" y1="115" x2="420" y2="115" stroke="#ccc" stroke-width="1" stroke-dasharray="4,3"/>
</svg>
